<svg width="136" height="24" viewBox="0 0 136 24" fill="none" xmlns="http://www.w3.org/2000/svg">
    <g clip-path="url(#clip0_2535_140)">
        <path
            d="M47.8701 6.07452H54.5448C55.6083 6.07452 56.5227 6.20342 57.28 6.45317C58.0413 6.70695 58.6657 7.0574 59.1571 7.50856C59.6485 7.95972 60.0111 8.49547 60.2487 9.11581C60.4864 9.73615 60.6032 10.4089 60.6032 11.1299V11.6455C60.6032 12.3666 60.4824 13.0473 60.2367 13.6959C59.9909 14.3444 59.6163 14.9084 59.1088 15.3877C58.6012 15.8711 57.9728 16.2538 57.2195 16.5398C56.4663 16.8258 55.576 16.9708 54.5448 16.9708H51.0121V23.7704H47.8701V6.07452ZM51.0121 8.70091V14.3202H54.1299C55.1611 14.3202 55.9708 14.1229 56.5589 13.7321C57.147 13.3414 57.4411 12.6284 57.4411 11.5972V11.1541C57.4411 10.6626 57.3686 10.2638 57.2195 9.94965C57.0705 9.63948 56.8651 9.38973 56.5952 9.2004C56.3253 9.01108 56.003 8.88218 55.6244 8.80564C55.2497 8.73313 54.8389 8.69688 54.3958 8.69688H51.0081L51.0121 8.70091Z"
            fill="#0B282E" />
        <path
            d="M68.6999 11.6982C68.4864 11.6176 68.2528 11.5532 67.999 11.5129C67.7452 11.4726 67.4552 11.4525 67.1289 11.4525C66.5086 11.4525 65.9607 11.5814 65.4854 11.8311C65.0101 12.0849 64.6193 12.4313 64.3092 12.8744C63.999 13.3175 63.7654 13.8412 63.6082 14.4454C63.4511 15.0497 63.3746 15.7063 63.3746 16.4072V23.7707H62.3192V10.6912H63.3504V13.2209C63.4632 12.8785 63.6324 12.5361 63.854 12.2017C64.0755 11.8674 64.3454 11.5693 64.6636 11.3075C64.9819 11.0456 65.3565 10.8321 65.7794 10.671C66.2064 10.5059 66.6777 10.4253 67.2014 10.4253C67.576 10.4253 67.9104 10.4495 68.1964 10.4978C68.4824 10.5461 68.7563 10.6186 69.0181 10.7193L68.6999 11.7022V11.6982Z"
            fill="#0B282E" />
        <path
            d="M74.7382 10.4536C76.4381 10.4536 77.7593 10.9692 78.7019 12.0004C79.6405 13.0317 80.1118 14.4858 80.1118 16.367V18.083C80.1118 19.9642 79.6405 21.4224 78.7019 22.4496C77.7593 23.4808 76.4381 23.9964 74.7382 23.9964C73.0383 23.9964 71.717 23.4808 70.7744 22.4496C69.8318 21.4184 69.3645 19.9642 69.3645 18.083V16.367C69.3645 14.4858 69.8358 13.0276 70.7744 12.0004C71.713 10.9732 73.0383 10.4536 74.7382 10.4536ZM74.7382 23.0941C76.0634 23.0941 77.1148 22.6872 77.8922 21.8655C78.6697 21.0478 79.0564 19.7869 79.0564 18.087V16.371C79.0564 14.6711 78.6657 13.4103 77.8922 12.5926C77.1148 11.7749 76.0634 11.364 74.7382 11.364C73.4129 11.364 72.3615 11.7749 71.5841 12.5926C70.8066 13.4103 70.4199 14.6711 70.4199 16.371V18.087C70.4199 19.7869 70.8066 21.0478 71.5841 21.8655C72.3615 22.6832 73.4129 23.0941 74.7382 23.0941Z"
            fill="#0B282E" />
        <path
            d="M90.9879 21.5964C90.6616 22.2691 90.1218 22.8371 89.3686 23.3004C88.6153 23.7676 87.7331 24.0013 86.718 24.0013C85.1309 24.0013 83.8983 23.5259 83.0242 22.5793C82.15 21.6286 81.711 20.247 81.711 18.4303V16.0254C81.711 15.1271 81.8358 14.3296 82.0896 13.6327C82.3434 12.9358 82.7019 12.3517 83.1692 11.8764C83.6364 11.4011 84.1843 11.0466 84.8127 10.8089C85.4411 10.5712 86.142 10.4544 86.9114 10.4544C87.6808 10.4544 88.4703 10.6156 89.2316 10.9338C89.9929 11.252 90.569 11.7153 90.9597 12.3195V5.25H92.0151V23.8039H90.9839V21.5964H90.9879ZM90.9879 14.5793C90.9879 14.1523 90.8912 13.7495 90.6938 13.3628C90.4965 12.9761 90.2145 12.6417 89.8479 12.3557C89.4814 12.0697 89.0423 11.8401 88.5347 11.6669C88.0272 11.4937 87.4713 11.4091 86.8671 11.4091C85.6385 11.4091 84.6516 11.82 83.8983 12.6377C83.145 13.4554 82.7704 14.6357 82.7704 16.1704V18.2812C82.7704 19.8361 83.1047 21.0164 83.7774 21.826C84.4501 22.6357 85.4693 23.0425 86.8469 23.0425C87.3222 23.0425 87.8056 22.9539 88.293 22.7727C88.7845 22.5914 89.2276 22.3296 89.6304 21.9872C90.0332 21.6448 90.3595 21.2218 90.6133 20.7223C90.8671 20.2228 90.9919 19.6548 90.9919 19.0184V14.5753L90.9879 14.5793Z"
            fill="#0B282E" />
        <path
            d="M93.9567 10.4898H95.0121V19.3599C95.0121 19.7345 95.0483 20.1414 95.1208 20.5764C95.1933 21.0115 95.3464 21.4102 95.576 21.7808C95.8056 22.1514 96.144 22.4576 96.5952 22.7033C97.0463 22.949 97.6546 23.0699 98.424 23.0699C99.1933 23.0699 99.7935 22.945 100.325 22.6912C100.857 22.4374 101.296 22.1313 101.638 21.7728C101.981 21.4143 102.239 21.0437 102.412 20.6691C102.585 20.2944 102.67 19.9802 102.67 19.7345V10.4938H103.725V23.807H102.694V21.7446C102.613 21.9259 102.452 22.1393 102.214 22.3931C101.977 22.6469 101.675 22.8926 101.308 23.1303C100.942 23.3679 100.515 23.5734 100.031 23.7426C99.5478 23.9158 99.0282 24.0004 98.4723 24.0004C97.6062 24.0004 96.8852 23.8836 96.3132 23.6459C95.7412 23.4082 95.2779 23.086 94.9275 22.6751C94.577 22.2683 94.3273 21.805 94.1782 21.2894C94.0292 20.7738 93.9567 20.23 93.9567 19.658V10.4898Z"
            fill="#0B282E" />
        <path
            d="M110.666 10.4536C111.435 10.4536 112.184 10.5503 112.909 10.7477C113.638 10.9451 114.279 11.2552 114.835 11.6822L114.368 12.4919C113.763 12.085 113.155 11.799 112.551 11.646C111.947 11.4929 111.314 11.4123 110.662 11.4123C109.272 11.4123 108.229 11.8595 107.532 12.7497C106.835 13.6399 106.488 14.8 106.488 16.222V18.087C106.488 18.8242 106.573 19.4929 106.746 20.1011C106.919 20.7094 107.181 21.229 107.532 21.6721C107.882 22.1152 108.329 22.4536 108.869 22.6913C109.409 22.9289 110.037 23.0458 110.758 23.0458C111.693 23.0458 112.486 22.9249 113.139 22.6792C113.792 22.4335 114.343 22.1233 114.782 21.7487L115.298 22.5583C114.839 22.937 114.231 23.2713 113.469 23.5654C112.708 23.8595 111.798 24.0085 110.734 24.0085C109.933 24.0085 109.207 23.8876 108.563 23.6419C107.918 23.3962 107.363 23.0296 106.895 22.5382C106.428 22.0468 106.069 21.4304 105.816 20.6852C105.562 19.94 105.437 19.0699 105.437 18.0709V16.3026C105.437 15.4204 105.554 14.6188 105.792 13.8977C106.029 13.1767 106.368 12.5644 106.811 12.0568C107.254 11.5493 107.798 11.1585 108.442 10.8806C109.087 10.6027 109.828 10.4617 110.662 10.4617L110.666 10.4536Z"
            fill="#0B282E" />
        <path
            d="M118.73 11.7071H116.446V10.8249H118.73V7.43719H119.785V10.8249H123.491V11.7071H119.785V20.1502C119.785 21.1331 119.91 21.8662 120.164 22.3576C120.418 22.8491 120.962 23.0948 121.796 23.0948C122.17 23.0948 122.513 23.0706 122.815 23.0223C123.117 22.9739 123.423 22.9095 123.733 22.8249L123.906 23.6829C123.661 23.7635 123.338 23.836 122.936 23.9045C122.533 23.9689 122.186 24.0011 121.892 24.0011C121.433 24.0011 121.014 23.9568 120.627 23.8642C120.241 23.7756 119.906 23.6023 119.62 23.3486C119.334 23.0948 119.113 22.7363 118.96 22.269C118.803 21.8017 118.726 21.1854 118.726 20.416V11.703L118.73 11.7071Z"
            fill="#0B282E" />
        <path d="M0.824768 6.09498H3.96273V23.7707H0.824768V6.09498Z" fill="#0B282E" />
        <path
            d="M13.2477 9.97054C13.852 9.97054 14.436 10.0592 15 10.2404C15.5639 10.4217 16.0675 10.7117 16.5065 11.1105C16.9496 11.5133 17.3001 12.029 17.5619 12.6694C17.8238 13.3059 17.9527 14.0753 17.9527 14.9736V23.7752H14.863V15.6342C14.863 13.6563 14.005 12.6694 12.289 12.6694C12.0433 12.6694 11.7533 12.7057 11.4189 12.7782C11.0846 12.8507 10.7664 12.9997 10.4642 13.2213C10.1621 13.4428 9.90432 13.757 9.69083 14.1639C9.47733 14.5707 9.3726 15.1105 9.3726 15.7832V23.7752H6.28297V10.2646H9.19939V11.8074H9.24772C9.72305 11.1226 10.3071 10.6433 11 10.3734C11.6928 10.1035 12.4421 9.97054 13.2437 9.97054H13.2477Z"
            fill="#0B282E" />
        <path
            d="M27.2377 9.97054C27.8419 9.97054 28.426 10.0592 28.9899 10.2404C29.5539 10.4217 30.0574 10.7117 30.4965 11.1105C30.9396 11.5133 31.29 12.029 31.5519 12.6694C31.8137 13.3059 31.9426 14.0753 31.9426 14.9736V23.7752H28.853V15.6342C28.853 13.6563 27.995 12.6694 26.2789 12.6694C26.0332 12.6694 25.7432 12.7057 25.4089 12.7782C25.0745 12.8507 24.7563 12.9997 24.4542 13.2213C24.1521 13.4428 23.8943 13.757 23.6808 14.1639C23.4673 14.5707 23.3625 15.1105 23.3625 15.7832V23.7752H20.2729V10.2646H23.1893V11.8074H23.2377C23.713 11.1226 24.2971 10.6433 24.9899 10.3734C25.6828 10.1035 26.432 9.97054 27.2336 9.97054H27.2377Z"
            fill="#0B282E" />
        <path
            d="M39.9063 24C38.9396 24 38.0695 23.859 37.2961 23.5851C36.5186 23.3071 35.858 22.9084 35.3102 22.3847C34.7623 21.861 34.3394 21.2125 34.0373 20.435C33.7351 19.6576 33.5821 18.7795 33.5821 17.8006V16.2054C33.5821 15.2105 33.7311 14.3243 34.0373 13.5589C34.3394 12.7895 34.7623 12.145 35.3102 11.6213C35.858 11.0977 36.5186 10.6989 37.2961 10.4209C38.0735 10.143 38.9436 10.002 39.9063 10.002C40.8691 10.002 41.719 10.143 42.5045 10.4209C43.29 10.6989 43.9547 11.0977 44.5025 11.6213C45.0504 12.145 45.4733 12.7895 45.7754 13.5589C46.0775 14.3283 46.2306 15.2105 46.2306 16.2054V17.8006C46.2306 18.7835 46.0775 19.6616 45.7754 20.435C45.4733 21.2125 45.0463 21.861 44.5025 22.3847C43.9547 22.9084 43.29 23.3071 42.5045 23.5851C41.719 23.863 40.853 24 39.9063 24ZM39.9063 21.3051C40.3615 21.3051 40.7885 21.2407 41.1792 21.1078C41.57 20.9789 41.9084 20.7734 42.1984 20.4955C42.4844 20.2175 42.71 19.851 42.8711 19.3917C43.0362 18.9366 43.1168 18.3887 43.1168 17.7482V16.2538C43.1168 14.9648 42.8268 14.0463 42.2467 13.5065C41.6667 12.9668 40.8852 12.6969 39.9063 12.6969C38.9275 12.6969 38.146 12.9668 37.566 13.5065C36.9859 14.0463 36.6959 14.9607 36.6959 16.2538V17.7482C36.6959 18.3847 36.7764 18.9325 36.9416 19.3917C37.1027 19.851 37.3283 20.2175 37.6143 20.4955C37.9003 20.7734 38.2387 20.9789 38.6334 21.1078C39.0242 21.2367 39.4512 21.3051 39.9104 21.3051H39.9063Z"
            fill="#0B282E" />
        <path d="M135.669 0L131.028 8.04431H126.19L130.835 0H135.669Z" fill="#FF0000" />
    </g>
    <defs>
        <clipPath id="clip0_2535_140">
            <rect width="134.844" height="24" fill="white" transform="translate(0.824768)" />
        </clipPath>
    </defs>
</svg>