<svg width="188" height="24" viewBox="0 0 188 24" fill="none" xmlns="http://www.w3.org/2000/svg">
    <path d="M5.57409 0.595451H0V23.2954H5.57409V0.595451Z" fill="#E50012" />
    <path
        d="M14.0063 0.595451H9.35851V23.2954H14.8036V10.1094L25.2074 23.2954H29.852V0.595451H24.4102V13.788L14.0063 0.595451Z"
        fill="#E50012" />
    <path
        d="M38.4265 0.595451H33.7853V23.2954H39.227V10.1094L49.6309 23.2954H54.2787V0.595451H48.8369V13.788L48.1753 12.9478L38.4265 0.595451Z"
        fill="#E50012" />
    <path
        d="M116.728 19.0147C113.668 19.0147 112.117 16.9968 112.117 13.0139V0.595451H106.543V13.2157C106.543 16.5833 107.436 19.2099 109.196 21.0261C110.952 22.8389 113.467 23.7585 116.662 23.7585C119.858 23.7585 122.372 22.8389 124.128 21.0261C125.888 19.2099 126.782 16.58 126.782 13.2157V0.595451H121.3V13.0139C121.3 16.9968 119.759 19.0147 116.725 19.0147H116.728Z"
        fill="#E50012" />
    <path d="M135.836 18.7766V0.595451H130.265V23.2954H146.484V18.7766H135.836Z" fill="#E50012" />
    <path
        d="M154.758 18.9155V13.8839H164.672V9.67278H154.758V4.97863H166.012V0.595451H149.247V23.2954H166.425V18.9155H154.758Z"
        fill="#E50012" />
    <path
        d="M186.409 12.9411C185.639 12.048 184.712 11.383 183.65 10.9662C182.559 10.5395 181.156 10.1359 179.482 9.7654C177.961 9.42467 176.829 9.09056 176.125 8.76637C175.102 8.29662 174.887 7.55892 174.887 7.02302C174.887 6.26878 175.228 5.65348 175.91 5.19366C176.561 4.75369 177.527 4.54197 178.864 4.54197C180.796 4.54197 182.813 5.09442 184.858 6.19269L186.532 1.95507C185.546 1.38277 184.405 0.93949 183.141 0.635148C181.755 0.301034 180.323 0.129014 178.893 0.129014C176.799 0.129014 175.02 0.456513 173.607 1.10159C172.201 1.73673 171.133 2.61006 170.435 3.6918C169.733 4.77353 169.376 6.00744 169.376 7.35382C169.376 8.88546 169.757 10.1127 170.501 10.9993C171.262 11.9057 172.188 12.5739 173.253 12.9875C174.365 13.4142 175.764 13.8178 177.408 14.1883C178.986 14.5588 180.098 14.8995 180.819 15.2369C181.851 15.7232 182.066 16.5006 182.066 17.063C182.066 18.5781 180.719 19.3422 178.063 19.3422C176.76 19.3422 175.413 19.1239 174.057 18.6873C172.869 18.3035 171.798 17.8106 170.865 17.2152L169.078 21.4164C170.068 22.0879 171.338 22.6404 172.869 23.0638C174.523 23.5203 176.26 23.7519 178.03 23.7519C180.098 23.7519 181.867 23.4211 183.293 22.7661C184.706 22.1243 185.778 21.251 186.485 20.1693C187.187 19.1008 187.537 17.8834 187.537 16.5535C187.537 15.0285 187.157 13.8079 186.403 12.9312L186.409 12.9411Z"
        fill="#E50012" />
    <path
        d="M98.9078 16.1533L99.2783 15.968C100.615 15.2899 101.653 14.3405 102.361 13.1496C103.079 11.952 103.443 10.5229 103.443 8.902C103.443 7.28105 103.056 5.73287 102.289 4.49235C101.528 3.25844 100.42 2.29249 99.0037 1.62095C97.568 0.942798 95.8511 0.598759 93.8994 0.598759H84.0645V23.2954H89.6386V5.07788H93.519C94.8984 5.07788 95.9702 5.4153 96.7046 6.08684C97.4357 6.75837 97.8095 7.70448 97.8095 8.902C97.8095 10.0995 97.439 11.0423 96.7013 11.7072C96.043 12.2928 95.1101 12.617 93.9258 12.6765V17.4831L97.7037 23.302H103.575L99.136 16.5039L98.9078 16.1566V16.1533Z"
        fill="#E50012" />
    <path
        d="M69.1584 0C62.5422 0 57.1567 5.38222 57.1567 11.9983C57.1567 18.6145 62.5422 23.9967 69.1584 23.9967C75.7745 23.9967 81.16 18.6145 81.16 11.9983C81.16 5.38222 75.7712 0 69.1584 0ZM69.1584 18.3862C65.6353 18.3862 62.7705 15.5214 62.7705 11.9983C62.7705 8.47526 65.6353 5.61047 69.1584 5.61047C72.6815 5.61047 75.5429 8.47526 75.5429 11.9983C75.5429 15.5214 72.6815 18.3862 69.1584 18.3862Z"
        fill="#E50012" />
</svg>