<svg xmlns="http://www.w3.org/2000/svg" viewBox="0 0 60 60">
	<rect fill="#e60012" x="0" width="60" height="60"/>
	<path fill="#fff" d="m43.593,36.398l-.318-.487.52-.265c1.887-.953,3.35-2.286,4.354-3.958,1.008-1.682,1.524-3.689,1.524-5.967,0-2.37-.549-4.45-1.63-6.194-1.077-1.733-2.638-3.09-4.639-4.033-2.025-.952-4.444-1.436-7.201-1.436h-13.875v31.886h7.86v-25.589h5.481c1.945,0,3.458.474,4.491,1.413,1.035.944,1.561,2.27,1.561,3.954s-.526,3.009-1.564,3.938c-.928.821-2.245,1.279-3.918,1.362v6.753l5.333,8.169h8.288l-6.268-9.545Zm-33.455,9.571h7.967V14.031h-7.967v31.938Z"/>
</svg>