<svg width="136" height="24" fill="none" xmlns="http://www.w3.org/2000/svg"><g clip-path="url(#a)"><path d="m135.996 0-4.676 8.105h-4.875L131.125 0h4.871Z" fill="red"/><path d="M47.516 6.003h6.725a8.73 8.73 0 0 1 2.756.385 5.13 5.13 0 0 1 1.891 1.064c.492.445.87 1.002 1.104 1.623a5.71 5.71 0 0 1 .357 2.03v.52a5.844 5.844 0 0 1-.369 2.065 4.554 4.554 0 0 1-1.14 1.705 5.606 5.606 0 0 1-1.904 1.165 7.587 7.587 0 0 1-2.695.43h-3.56v6.851h-3.165V6.003Zm3.165 2.646v5.662h3.142a4.366 4.366 0 0 0 2.435-.592c.593-.396.889-1.112.889-2.152v-.446a2.814 2.814 0 0 0-.223-1.218 1.876 1.876 0 0 0-.63-.755 2.562 2.562 0 0 0-.977-.405 6.522 6.522 0 0 0-1.218-.11l-3.418.016ZM68.503 11.665a3.627 3.627 0 0 0-.702-.183 5.62 5.62 0 0 0-.88-.065 3.462 3.462 0 0 0-1.657.406c-.473.25-.88.611-1.185 1.051-.33.48-.57 1.017-.706 1.583a7.853 7.853 0 0 0-.235 1.977v7.419h-1.064V10.654h1.023v2.545c.123-.363.294-.708.507-1.027.225-.34.498-.643.812-.901a4 4 0 0 1 1.124-.641c.46-.171.947-.255 1.437-.248.334-.003.668.021.999.073.277.048.549.123.811.223l-.284.987ZM74.588 10.18c1.713 0 3.044.519 3.994 1.558.95 1.039 1.423 2.505 1.42 4.4v1.753c0 1.894-.473 3.36-1.42 4.4-.947 1.039-2.279 1.558-3.994 1.558-1.718 0-3.05-.52-3.994-1.558-.944-1.04-1.414-2.506-1.408-4.4v-1.733c0-1.894.474-3.36 1.424-4.4.95-1.039 2.276-1.565 3.978-1.579Zm0 12.732a4.176 4.176 0 0 0 3.178-1.218c.779-.812 1.17-2.08 1.173-3.807v-1.733c0-1.713-.391-2.982-1.173-3.807a4.7 4.7 0 0 0-6.356 0c-.782.811-1.175 2.08-1.177 3.807v1.737c0 1.713.392 2.982 1.177 3.807a4.175 4.175 0 0 0 3.178 1.218v-.005ZM90.96 21.41a4.217 4.217 0 0 1-1.623 1.717 4.96 4.96 0 0 1-2.67.706c-1.6 0-2.84-.478-3.723-1.433-.882-.955-1.323-2.348-1.323-4.18v-2.435a7.004 7.004 0 0 1 .382-2.411 4.899 4.899 0 0 1 1.088-1.77 4.53 4.53 0 0 1 1.66-1.076 6.133 6.133 0 0 1 4.464.126c.71.277 1.32.764 1.745 1.396V4.94h1.064v18.694h-1.04l-.024-2.224Zm0-7.075a2.686 2.686 0 0 0-.296-1.217 3.024 3.024 0 0 0-.852-1.015 4.594 4.594 0 0 0-1.323-.694 5.278 5.278 0 0 0-1.685-.26 3.882 3.882 0 0 0-2.991 1.218c-.759.812-1.136 2.03-1.136 3.56v2.126c0 1.567.338 2.759 1.014 3.576.677.817 1.706 1.223 3.089 1.218.5-.003.994-.096 1.461-.272a4.27 4.27 0 0 0 1.348-.812c.41-.354.744-.786.986-1.27a3.74 3.74 0 0 0 .385-1.721v-4.436ZM93.943 10.22h1.064v8.929c.003.408.04.815.11 1.218.069.432.224.846.458 1.217a2.67 2.67 0 0 0 1.027.93c.573.273 1.204.4 1.838.369a4.321 4.321 0 0 0 3.247-1.31c.321-.325.583-.7.776-1.113.151-.29.239-.61.259-.938V10.22h1.064v13.394h-1.035v-2.07c-.127.242-.29.464-.483.657a4.796 4.796 0 0 1-.917.743 6.502 6.502 0 0 1-1.283.617 4.622 4.622 0 0 1-1.57.26c-.742.021-1.48-.1-2.176-.358a3.57 3.57 0 0 1-2.155-2.374 6.047 6.047 0 0 1-.22-1.623l-.004-9.246ZM110.787 10.18a8.627 8.627 0 0 1 2.265.296 5.556 5.556 0 0 1 1.94.937l-.471.812a5.869 5.869 0 0 0-1.83-.857 7.72 7.72 0 0 0-1.904-.235c-1.401 0-2.451.45-3.149 1.352a5.508 5.508 0 0 0-1.051 3.498v1.908a7.358 7.358 0 0 0 .259 2.03c.16.577.436 1.116.812 1.582.357.449.82.802 1.348 1.027a4.68 4.68 0 0 0 1.903.357 6.869 6.869 0 0 0 2.399-.37 5.514 5.514 0 0 0 1.656-.94l.519.811a6.645 6.645 0 0 1-1.842 1.015 7.649 7.649 0 0 1-2.756.446 6.146 6.146 0 0 1-2.192-.373 4.467 4.467 0 0 1-1.68-1.112 5.002 5.002 0 0 1-1.088-1.867 8.144 8.144 0 0 1-.381-2.63v-1.782a7.676 7.676 0 0 1 .357-2.436 5.298 5.298 0 0 1 1.027-1.854c.446-.512 1-.918 1.623-1.19a5.607 5.607 0 0 1 2.236-.426ZM118.913 11.446h-2.302v-.893h2.302V7.139h1.063v3.414h3.734v.893h-3.734v8.523a5.033 5.033 0 0 0 .382 2.228c.255.491.811.739 1.647.739.343.003.685-.022 1.023-.073.313-.05.624-.116.93-.199l.17.869a6.472 6.472 0 0 1-.974.219 6.373 6.373 0 0 1-1.051.101 5.463 5.463 0 0 1-1.275-.138 2.286 2.286 0 0 1-1.014-.52 2.429 2.429 0 0 1-.666-1.087 5.982 5.982 0 0 1-.235-1.867v-8.795ZM0 6.023h3.162v17.81H0V6.023ZM12.517 9.924c.6 0 1.194.091 1.766.271a4.1 4.1 0 0 1 1.518.877 4.25 4.25 0 0 1 1.063 1.571c.285.74.423 1.529.406 2.322v8.868h-3.113V15.63c0-1.991-.865-2.987-2.594-2.987-.295.006-.589.042-.876.11-.349.079-.677.23-.962.446-.33.252-.597.577-.78.95a3.523 3.523 0 0 0-.32 1.623v8.053H5.512V10.22H8.45v1.558h.053a3.77 3.77 0 0 1 1.766-1.444 6.18 6.18 0 0 1 2.248-.41ZM26.613 9.924a5.86 5.86 0 0 1 1.765.271 4.1 4.1 0 0 1 1.518.877 4.25 4.25 0 0 1 1.064 1.571c.285.74.423 1.529.406 2.322v8.868h-3.11V15.63c0-1.991-.864-2.987-2.593-2.987a4.283 4.283 0 0 0-.88.11c-.35.079-.677.23-.963.446-.33.252-.596.577-.779.95a3.576 3.576 0 0 0-.32 1.623v8.053h-3.114V10.22h2.943v1.558h.049a3.77 3.77 0 0 1 1.765-1.444 6.18 6.18 0 0 1 2.249-.41ZM39.377 23.833a7.758 7.758 0 0 1-2.63-.406 5.556 5.556 0 0 1-2-1.218 5.357 5.357 0 0 1-1.287-1.964 7.262 7.262 0 0 1-.455-2.655v-1.623a7.254 7.254 0 0 1 .455-2.667c.28-.737.72-1.403 1.286-1.952a5.557 5.557 0 0 1 2.001-1.218 8.365 8.365 0 0 1 5.248 0 5.54 5.54 0 0 1 2.03 1.218A5.373 5.373 0 0 1 45.31 13.3c.318.853.472 1.757.455 2.667v1.623a7.264 7.264 0 0 1-.455 2.655 5.357 5.357 0 0 1-1.286 1.964 5.539 5.539 0 0 1-2.03 1.218 7.799 7.799 0 0 1-2.618.406Zm0-2.72c.437.004.871-.061 1.287-.194a2.681 2.681 0 0 0 1.023-.617c.309-.314.54-.694.678-1.112.176-.534.26-1.094.247-1.656v-1.506c0-1.302-.292-2.224-.877-2.768a3.815 3.815 0 0 0-4.716 0c-.584.541-.876 1.464-.876 2.768v1.506c-.013.562.07 1.122.247 1.656.137.418.369.798.678 1.112.291.28.642.492 1.027.617.414.133.847.199 1.282.194Z" fill="#fff"/></g><defs><clipPath id="a"><path fill="#fff" d="M0 0h136v23.833H0z"/></clipPath></defs></svg>