<svg width="1600" height="900" viewBox="0 0 1600 900" fill="none" xmlns="http://www.w3.org/2000/svg">
<mask id="mask0_1149_20008" style="mask-type:alpha" maskUnits="userSpaceOnUse" x="0" y="0" width="1600" height="900">
<rect width="1600" height="900" fill="#1454B5"/>
</mask>
<g mask="url(#mask0_1149_20008)">
<rect width="1600" height="900" fill="#1454B5"/>
<rect width="1600" height="900" fill="url(#paint0_linear_1149_20008)"/>
<rect opacity="0.1" x="521.434" y="-727" width="1172.59" height="1127.74" transform="rotate(45 521.434 -727)" fill="url(#paint1_linear_1149_20008)"/>
<rect opacity="0.1" x="-575" y="444.711" width="586.491" height="911.977" transform="rotate(-45 -575 444.711)" fill="url(#paint2_linear_1149_20008)"/>
<rect opacity="0.05" x="1538.87" y="-753" width="586.491" height="911.977" transform="rotate(45 1538.87 -753)" fill="url(#paint3_linear_1149_20008)"/>
<rect opacity="0.1" x="1777.58" y="163.865" width="586.491" height="911.977" transform="rotate(135 1777.58 163.865)" fill="url(#paint4_linear_1149_20008)"/>
<rect opacity="0.1" x="-720" y="476.293" width="1212.39" height="770.122" transform="rotate(-45 -720 476.293)" fill="url(#paint5_linear_1149_20008)"/>
<rect opacity="0.1" x="527" y="948.342" width="611.423" height="770.122" transform="rotate(-45 527 948.342)" fill="url(#paint6_linear_1149_20008)"/>
<rect opacity="0.1" x="917" y="799.156" width="1414.43" height="765.666" transform="rotate(-45 917 799.156)" fill="url(#paint7_linear_1149_20008)"/>
</g>
<defs>
<linearGradient id="paint0_linear_1149_20008" x1="800" y1="0" x2="800" y2="900" gradientUnits="userSpaceOnUse">
<stop stop-color="#2763FF"/>
<stop offset="1" stop-color="#1883FF"/>
</linearGradient>
<linearGradient id="paint1_linear_1149_20008" x1="518.958" y1="-723.341" x2="1625.07" y2="-720.297" gradientUnits="userSpaceOnUse">
<stop stop-color="#0500FE"/>
<stop offset="1" stop-color="white" stop-opacity="0"/>
</linearGradient>
<linearGradient id="paint2_linear_1149_20008" x1="-576.238" y1="447.67" x2="-22.9932" y2="448.611" gradientUnits="userSpaceOnUse">
<stop stop-color="#0500FE"/>
<stop offset="1" stop-color="white" stop-opacity="0"/>
</linearGradient>
<linearGradient id="paint3_linear_1149_20008" x1="1537.63" y1="-750.041" x2="2090.87" y2="-749.1" gradientUnits="userSpaceOnUse">
<stop stop-color="#0500FE"/>
<stop offset="1" stop-color="white" stop-opacity="0"/>
</linearGradient>
<linearGradient id="paint4_linear_1149_20008" x1="1776.34" y1="166.824" x2="2329.58" y2="167.766" gradientUnits="userSpaceOnUse">
<stop stop-color="#0500FE"/>
<stop offset="1" stop-color="white" stop-opacity="0"/>
</linearGradient>
<linearGradient id="paint5_linear_1149_20008" x1="-722.56" y1="478.791" x2="421.093" y2="483.557" gradientUnits="userSpaceOnUse">
<stop stop-color="#0500FE"/>
<stop offset="1" stop-color="white" stop-opacity="0"/>
</linearGradient>
<linearGradient id="paint6_linear_1149_20008" x1="525.709" y1="950.84" x2="1102.47" y2="952.052" gradientUnits="userSpaceOnUse">
<stop stop-color="#0500FE"/>
<stop offset="1" stop-color="white" stop-opacity="0"/>
</linearGradient>
<linearGradient id="paint7_linear_1149_20008" x1="914.013" y1="801.64" x2="2248.24" y2="808.164" gradientUnits="userSpaceOnUse">
<stop stop-color="white" stop-opacity="0"/>
<stop offset="1" stop-color="#0500FE"/>
</linearGradient>
</defs>
</svg>
