<svg width="95" height="24" viewBox="0 0 95 24" fill="none" xmlns="http://www.w3.org/2000/svg">
    <g clip-path="url(#clip0_2535_158)">
        <path d="M94.2617 0L89.6183 8.04229H84.7828L89.4263 0H94.2617Z" fill="#FF0000" />
        <path d="M0 6.09484H3.13829V23.7726H0V6.09484Z" fill="#0B282E" />
        <path
            d="M12.4229 9.96798C13.0274 9.96798 13.6126 10.0583 14.176 10.2377C14.7394 10.4171 15.2423 10.7074 15.6834 11.1074C16.1246 11.5086 16.4766 12.0274 16.7383 12.664C17 13.3017 17.1303 14.0697 17.1303 14.968V23.7703H14.0411V15.6308C14.0411 13.6537 13.1829 12.664 11.4674 12.664C11.2217 12.664 10.9314 12.7006 10.5966 12.7748C10.2617 12.848 9.94286 12.9954 9.64 13.216C9.33714 13.4366 9.08 13.7508 8.86743 14.16C8.65486 14.5691 8.54857 15.1074 8.54857 15.7783V23.7714H5.45943V10.2617H8.37714V11.8057H8.42629C8.90057 11.12 9.48457 10.6411 10.1794 10.3714C10.8743 10.1017 11.6217 9.96684 12.4229 9.96684V9.96798Z"
            fill="#0B282E" />
        <path
            d="M26.4137 9.96798C27.0183 9.96798 27.6034 10.0583 28.1669 10.2377C28.7303 10.4171 29.2331 10.7074 29.6743 11.1074C30.1154 11.5086 30.4674 12.0274 30.7291 12.664C30.9909 13.3017 31.1211 14.0697 31.1211 14.968V23.7703H28.032V15.6308C28.032 13.6537 27.1737 12.664 25.4583 12.664C25.2126 12.664 24.9223 12.7006 24.5874 12.7748C24.2526 12.848 23.9337 12.9954 23.6309 13.216C23.328 13.4366 23.0709 13.7508 22.8583 14.16C22.6457 14.5691 22.5394 15.1074 22.5394 15.7783V23.7714H19.4503V10.2617H22.368V11.8057H22.4171C22.8914 11.12 23.4754 10.6411 24.1703 10.3714C24.8651 10.1017 25.6126 9.96684 26.4137 9.96684V9.96798Z"
            fill="#0B282E" />
        <path
            d="M39.0834 24C38.1189 24 37.248 23.8606 36.472 23.5828C35.696 23.3051 35.0331 22.904 34.4857 22.3817C33.9383 21.8583 33.5131 21.2091 33.2103 20.432C32.9074 19.656 32.7566 18.7771 32.7566 17.7966V16.2034C32.7566 15.2068 32.9074 14.3246 33.2103 13.5554C33.512 12.7874 33.9371 12.1417 34.4857 11.6183C35.0331 11.0948 35.6949 10.6948 36.472 10.4171C37.248 10.1394 38.1189 9.99998 39.0834 9.99998C40.048 9.99998 40.8971 10.1394 41.6823 10.4171C42.4674 10.6948 43.1326 11.096 43.6811 11.6183C44.2286 12.1417 44.6537 12.7874 44.9566 13.5554C45.2583 14.3246 45.4103 15.2068 45.4103 16.2034V17.7966C45.4103 18.7771 45.2594 19.656 44.9566 20.432C44.6537 21.208 44.2286 21.8583 43.6811 22.3817C43.1337 22.9051 42.4674 23.3051 41.6823 23.5828C40.8983 23.8606 40.0309 24 39.0834 24ZM39.0834 21.3028C39.5406 21.3028 39.9657 21.2377 40.3589 21.1063C40.7509 20.9748 41.0903 20.7714 41.376 20.4937C41.6617 20.216 41.8869 19.848 42.0503 19.3897C42.2137 18.9326 42.296 18.3851 42.296 17.7474V16.2514C42.296 14.96 42.0057 14.0446 41.4251 13.5051C40.8446 12.9657 40.0651 12.696 39.0846 12.696C38.104 12.696 37.3223 12.9657 36.7429 13.5051C36.1623 14.0446 35.872 14.96 35.872 16.2514V17.7474C35.872 18.3851 35.9543 18.9326 36.1177 19.3897C36.2811 19.848 36.5051 20.2148 36.792 20.4937C37.0777 20.7714 37.4171 20.976 37.8091 21.1063C38.2023 21.2377 38.6263 21.3028 39.0846 21.3028H39.0834Z"
            fill="#0B282E" />
        <path
            d="M60.8926 6.15998L66.8034 22.4777L72.6663 6.15998H73.8149L67.3909 23.7726H66.1451L59.696 6.15998H60.8926Z"
            fill="#0B282E" />
        <path
            d="M81.4846 18.08H73.5211L71.3714 23.7714H70.1989L76.9897 6.15884H78.064L84.7817 23.7714H83.5851L81.4846 18.08ZM73.888 17.1268H81.1189L79.0183 11.4354C78.7577 10.7188 78.4971 10.0228 78.2366 9.34741C77.976 8.67198 77.7394 7.99198 77.528 7.30741C77.3326 7.99198 77.1086 8.67198 76.856 9.34741C76.6034 10.0228 76.3383 10.7188 76.0617 11.4354L73.888 17.1268Z"
            fill="#0B282E" />
        <path
            d="M47.0446 6.0777H53.72C54.784 6.0777 55.696 6.20455 56.4571 6.45827C57.2183 6.71198 57.8434 7.06398 58.3349 7.51427C58.8263 7.96455 59.1897 8.50055 59.4274 9.12113C59.6651 9.74284 59.784 10.4137 59.784 11.1337V11.6491C59.784 12.3691 59.6617 13.0526 59.416 13.6983C59.1703 14.3451 58.7943 14.9097 58.2869 15.392C57.7794 15.8743 57.1497 16.2594 56.3977 16.5451C55.6446 16.832 54.7531 16.9748 53.7223 16.9748H50.1886V23.7726H47.0469V6.0777H47.0446ZM50.1863 8.70398V14.3234H53.3029C54.3337 14.3234 55.144 14.1268 55.7326 13.7348C56.3211 13.3417 56.616 12.6308 56.616 11.6V11.1577C56.616 10.6674 56.5429 10.2663 56.3954 9.95541C56.248 9.64455 56.0389 9.39541 55.7691 9.20684C55.4994 9.01827 55.176 8.88798 54.8 8.8137C54.424 8.74056 54.0149 8.70398 53.5726 8.70398H50.1863Z"
            fill="#0B282E" />
    </g>
    <defs>
        <clipPath id="clip0_2535_158">
            <rect width="94.2617" height="24" fill="white" />
        </clipPath>
    </defs>
</svg>