<svg width="105" height="24" viewBox="0 0 105 24" fill="none" xmlns="http://www.w3.org/2000/svg">
    <g clip-path="url(#clip0_2535_152)">
        <path d="M0.509521 6.09606H3.64749V23.7718H0.509521V6.09606Z" fill="#0B282E" />
        <path
            d="M12.9325 9.96691C13.5367 9.96691 14.1208 10.0555 14.6847 10.2368C15.2487 10.4181 15.7522 10.7081 16.1913 11.1069C16.6344 11.5097 16.9848 12.0253 17.2467 12.6658C17.5085 13.3023 17.6374 14.0716 17.6374 14.9699V23.7715H14.5478V15.6306C14.5478 13.6527 13.6898 12.6658 11.9738 12.6658C11.728 12.6658 11.438 12.7021 11.1037 12.7746C10.7693 12.8471 10.4511 12.9961 10.149 13.2177C9.84688 13.4392 9.58907 13.7534 9.37558 14.1603C9.16208 14.5671 9.05735 15.1069 9.05735 15.7796V23.7715H5.96772V10.265H8.88414V11.8078H8.93248C9.4078 11.123 9.99189 10.6436 10.6847 10.3738C11.3776 10.1039 12.1268 9.97094 12.9284 9.97094L12.9325 9.96691Z"
            fill="#0B282E" />
        <path
            d="M26.9224 9.96691C27.5266 9.96691 28.1107 10.0555 28.6747 10.2368C29.2386 10.4181 29.7422 10.7081 30.1812 11.1069C30.6243 11.5097 30.9748 12.0253 31.2366 12.6658C31.4984 13.3023 31.6273 14.0716 31.6273 14.9699V23.7715H28.5377V15.6306C28.5377 13.6527 27.6797 12.6658 25.9637 12.6658C25.718 12.6658 25.428 12.7021 25.0936 12.7746C24.7593 12.8471 24.441 12.9961 24.1389 13.2177C23.8368 13.4392 23.579 13.7534 23.3655 14.1603C23.152 14.5671 23.0473 15.1069 23.0473 15.7796V23.7715H19.9577V10.265H22.8741V11.8078H22.9224C23.3977 11.123 23.9818 10.6436 24.6747 10.3738C25.3675 10.1039 26.1168 9.97094 26.9184 9.97094L26.9224 9.96691Z"
            fill="#0B282E" />
        <path
            d="M39.5911 24.0011C38.6243 24.0011 37.7542 23.8601 36.9808 23.5862C36.2034 23.3082 35.5428 22.9094 34.9949 22.3858C34.4471 21.8621 34.0241 21.2136 33.722 20.4361C33.4199 19.6587 33.2668 18.7805 33.2668 17.8017V16.2065C33.2668 15.2116 33.4159 14.3254 33.722 13.56C34.0241 12.7906 34.4471 12.1461 34.9949 11.6224C35.5428 11.0988 36.2034 10.7 36.9808 10.422C37.7583 10.1441 38.6284 10.0031 39.5911 10.0031C40.5538 10.0031 41.4038 10.1441 42.1893 10.422C42.9748 10.7 43.6394 11.0988 44.1873 11.6224C44.7351 12.1461 45.1581 12.7906 45.4602 13.56C45.7623 14.3294 45.9154 15.2116 45.9154 16.2065V17.8017C45.9154 18.7846 45.7623 19.6627 45.4602 20.4361C45.1581 21.2136 44.7311 21.8621 44.1873 22.3858C43.6394 22.9094 42.9748 23.3082 42.1893 23.5862C41.4038 23.8641 40.5377 24.0011 39.5911 24.0011ZM39.5911 21.3062C40.0463 21.3062 40.4733 21.2418 40.864 21.1088C41.2547 20.9799 41.5931 20.7745 41.8831 20.4966C42.1691 20.2186 42.3947 19.852 42.5559 19.3928C42.721 18.9376 42.8016 18.3898 42.8016 17.7493V16.2549C42.8016 14.9658 42.5115 14.0474 41.9315 13.5076C41.3514 12.9679 40.5699 12.698 39.5911 12.698C38.6122 12.698 37.8308 12.9679 37.2507 13.5076C36.6707 14.0474 36.3806 14.9618 36.3806 16.2549V17.7493C36.3806 18.3858 36.4612 18.9336 36.6263 19.3928C36.7875 19.852 37.0131 20.2186 37.2991 20.4966C37.5851 20.7745 37.9234 20.9799 38.3182 21.1088C38.7089 21.2377 39.1359 21.3062 39.5951 21.3062H39.5911Z"
            fill="#0B282E" />
        <path
            d="M51.3816 11.5019C51.2487 11.1917 51.1198 10.8252 50.9869 10.4103C50.8539 9.99133 50.6847 9.46364 50.4713 8.82718V23.7718H47.5508V6.09606H52.0181L56.3605 17.0729L60.5337 6.09606H65.0493V23.7718H62.0805V8.82718C61.8992 9.56434 61.7462 10.1162 61.6132 10.4828C61.4803 10.8493 61.3595 11.1917 61.2467 11.5019L57.5407 20.8272H55.0392L51.3816 11.5019Z"
            fill="#0B282E" />
        <path
            d="M73.154 22.995C73.8428 22.995 74.4954 22.8943 75.1158 22.6888C75.7361 22.4834 76.2759 22.137 76.7351 21.6455C77.1943 21.1541 77.5569 20.5096 77.8267 19.708C78.0966 18.9064 78.2336 17.8993 78.2336 16.6909V6.03627H79.3131V17.0292C79.3131 19.3213 78.7573 21.0534 77.6455 22.2337C76.5337 23.4099 75.0352 24.002 73.154 24.002C71.2729 24.002 69.7744 23.4139 68.6626 22.2337C67.5508 21.0574 66.9949 19.3213 66.9949 17.0292V6.03627H68.0745V16.6868C68.0745 17.8993 68.2074 18.9023 68.4773 19.7039C68.7472 20.5056 69.1097 21.1501 69.5689 21.6415C70.0282 22.1329 70.5679 22.4794 71.1883 22.6848C71.8086 22.8902 72.4652 22.991 73.15 22.991L73.154 22.995Z"
            fill="#0B282E" />
        <path
            d="M86.584 22.9701C87.3373 22.9701 88.01 22.8774 88.6102 22.6881C89.2064 22.4988 89.714 22.245 90.1329 21.9268C90.5518 21.6085 90.866 21.2379 91.0795 20.823C91.293 20.4041 91.3977 19.969 91.3977 19.5098V18.8734C91.3977 18.3819 91.3413 17.9509 91.2245 17.5844C91.1077 17.2178 90.866 16.8875 90.4874 16.6015C90.1087 16.3155 89.5689 16.0496 88.868 15.8039C88.1631 15.5582 87.2245 15.3125 86.0443 15.0667C84.9164 14.821 84.0221 14.535 83.3695 14.2087C82.717 13.8824 82.2255 13.5239 81.8952 13.1413C81.5689 12.7586 81.3595 12.3517 81.2709 11.9247C81.1822 11.4977 81.1339 11.0748 81.1339 10.6478V10.0355C81.1339 9.29835 81.299 8.6619 81.6253 8.12212C81.9516 7.58234 82.3786 7.13924 82.9023 6.79684C83.4259 6.45445 84.0141 6.19664 84.6706 6.02343C85.3232 5.85022 85.9879 5.76562 86.6565 5.76562C87.8328 5.76562 88.8519 5.89856 89.714 6.16844C90.572 6.43833 91.2809 6.7767 91.8368 7.18758L91.3212 8.06975C90.7492 7.69513 90.0765 7.38496 89.3071 7.15132C88.5377 6.91769 87.6555 6.79684 86.6565 6.79684C86.1329 6.79684 85.6092 6.85727 85.0856 6.98214C84.5619 7.10299 84.0866 7.30037 83.6636 7.57026C83.2366 7.84015 82.8902 8.17851 82.6203 8.58939C82.3504 9.00027 82.2134 9.48768 82.2134 10.0637V10.6277C82.2134 11.0184 82.2578 11.3809 82.3504 11.7072C82.439 12.0335 82.6364 12.3356 82.9385 12.6136C83.2406 12.8915 83.6757 13.1533 84.2396 13.3991C84.8036 13.6448 85.5609 13.8744 86.5115 14.0879C87.7039 14.3658 88.6868 14.6357 89.4561 14.8975C90.2255 15.1594 90.8338 15.4655 91.285 15.816C91.7361 16.1664 92.0463 16.5854 92.2195 17.0687C92.3927 17.5521 92.4773 18.1443 92.4773 18.8492V19.538C92.4773 20.11 92.3444 20.6659 92.0866 21.2057C91.8247 21.7455 91.4461 22.2248 90.9466 22.6397C90.4471 23.0587 89.8348 23.389 89.1057 23.6347C88.3766 23.8804 87.5468 24.0013 86.6163 24.0013C85.5367 24.0013 84.4934 23.8442 83.4864 23.534C82.4793 23.2238 81.5609 22.7566 80.727 22.1362L81.2668 21.2299C81.8066 21.6045 82.3222 21.9106 82.8137 22.1362C83.3051 22.3658 83.7724 22.539 84.2114 22.6639C84.6505 22.7888 85.0735 22.8694 85.4763 22.9096C85.8751 22.9499 86.2497 22.9701 86.5921 22.9701H86.584Z"
            fill="#0B282E" />
        <path d="M104.236 0L99.5911 8.04431H94.7573L99.4018 0H104.236Z" fill="#FF0000" />
    </g>
    <defs>
        <clipPath id="clip0_2535_152">
            <rect width="103.726" height="24" fill="white" transform="translate(0.509521)" />
        </clipPath>
    </defs>
</svg>