<svg width="110" height="24" viewBox="0 0 110 24" fill="none" xmlns="http://www.w3.org/2000/svg">
    <g clip-path="url(#clip0_2535_134)">
        <path d="M109.825 0L105.184 8.04431H100.346L104.991 0H109.825Z" fill="#FF0000" />
        <path d="M0 6.09585H3.13797V23.7716H0V6.09585Z" fill="#0B282E" />
        <path
            d="M12.423 9.96669C13.0272 9.96669 13.6113 10.0553 14.1752 10.2366C14.7392 10.4179 15.2427 10.7079 15.6818 11.1067C16.1249 11.5095 16.4753 12.0251 16.7372 12.6656C16.999 13.302 17.1279 14.0714 17.1279 14.9697V23.7713H14.0383V15.6303C14.0383 13.6525 13.1803 12.6656 11.4642 12.6656C11.2185 12.6656 10.9285 12.7018 10.5942 12.7743C10.2598 12.8469 9.94159 12.9959 9.63947 13.2174C9.33736 13.439 9.07955 13.7532 8.86606 14.16C8.65256 14.5669 8.54783 15.1067 8.54783 15.7794V23.7713H5.4582V10.2608H8.37462V11.8035H8.42296C8.89828 11.1188 9.48237 10.6394 10.1752 10.3695C10.8681 10.0996 11.6173 9.96669 12.4189 9.96669H12.423Z"
            fill="#0B282E" />
        <path
            d="M26.4129 9.96669C27.0171 9.96669 27.6012 10.0553 28.1652 10.2366C28.7291 10.4179 29.2326 10.7079 29.6717 11.1067C30.1148 11.5095 30.4653 12.0251 30.7271 12.6656C30.9889 13.302 31.1178 14.0714 31.1178 14.9697V23.7713H28.0282V15.6303C28.0282 13.6525 27.1702 12.6656 25.4542 12.6656C25.2085 12.6656 24.9184 12.7018 24.5841 12.7743C24.2497 12.8469 23.9315 12.9959 23.6294 13.2174C23.3273 13.439 23.0695 13.7532 22.856 14.16C22.6425 14.5669 22.5378 15.1067 22.5378 15.7794V23.7713H19.4481V10.2608H22.3646V11.8035H22.4129C22.8882 11.1188 23.4723 10.6394 24.1652 10.3695C24.858 10.0996 25.6072 9.96669 26.4089 9.96669H26.4129Z"
            fill="#0B282E" />
        <path
            d="M39.0816 24.0009C38.1148 24.0009 37.2447 23.8599 36.4713 23.586C35.6939 23.308 35.0332 22.9092 34.4854 22.3856C33.9376 21.8619 33.5146 21.2134 33.2125 20.4359C32.9104 19.6585 32.7573 18.7803 32.7573 17.8015V16.2063C32.7573 15.2113 32.9063 14.3251 33.2125 13.5598C33.5146 12.7904 33.9376 12.1459 34.4854 11.6222C35.0332 11.0986 35.6939 10.6998 36.4713 10.4218C37.2487 10.1439 38.1188 10.0029 39.0816 10.0029C40.0443 10.0029 40.8943 10.1439 41.6798 10.4218C42.4653 10.6998 43.1299 11.0986 43.6777 11.6222C44.2256 12.1459 44.6485 12.7904 44.9507 13.5598C45.2528 14.3292 45.4058 15.2113 45.4058 16.2063V17.8015C45.4058 18.7844 45.2528 19.6625 44.9507 20.4359C44.6485 21.2134 44.2216 21.8619 43.6777 22.3856C43.1299 22.9092 42.4653 23.308 41.6798 23.586C40.8943 23.8639 40.0282 24.0009 39.0816 24.0009ZM39.0816 21.306C39.5368 21.306 39.9637 21.2416 40.3545 21.1086C40.7452 20.9797 41.0836 20.7743 41.3736 20.4963C41.6596 20.2184 41.8852 19.8518 42.0463 19.3926C42.2115 18.9374 42.292 18.3896 42.292 17.7491V16.2546C42.292 14.9656 42.002 14.0472 41.422 13.5074C40.8419 12.9676 40.0604 12.6977 39.0816 12.6977C38.1027 12.6977 37.3212 12.9676 36.7412 13.5074C36.1611 14.0472 35.8711 14.9616 35.8711 16.2546V17.7491C35.8711 18.3856 35.9517 18.9334 36.1168 19.3926C36.278 19.8518 36.5035 20.2184 36.7895 20.4963C37.0755 20.7743 37.4139 20.9797 37.8087 21.1086C38.1994 21.2375 38.6264 21.306 39.0856 21.306H39.0816Z"
            fill="#0B282E" />
        <path
            d="M50.1833 16.686V23.7716H47.0453V6.09585H53.7402C54.6546 6.09585 55.4683 6.21669 56.1813 6.46241C56.8943 6.70813 57.4904 7.04247 57.9698 7.46946C58.4532 7.89645 58.8197 8.404 59.0735 9.00018C59.3273 9.59635 59.4522 10.2449 59.4522 10.9498V11.8562C59.4522 12.7867 59.2226 13.6245 58.7674 14.3698C58.3082 15.115 57.6234 15.691 56.709 16.0979C57.2971 17.3909 57.8731 18.6679 58.4371 19.9367C59.001 21.2016 59.577 22.4826 60.1652 23.7716H56.7573L53.7925 16.686H50.1833ZM50.1833 8.7182V14.0636H53.0755C54.284 14.0636 55.1299 13.8501 55.6133 13.4272C56.0967 13.0042 56.3384 12.4564 56.3384 11.7837V11.0465C56.3384 10.3617 56.1088 9.80179 55.6536 9.36674C55.1944 8.9317 54.429 8.7182 53.3494 8.7182H50.1833Z"
            fill="#0B282E" />
        <path
            d="M61.7845 10.4916H62.8399V19.3657C62.8399 19.7403 62.8761 20.1471 62.9486 20.5782C63.0211 21.0132 63.1742 21.412 63.4038 21.7786C63.6334 22.1451 63.9718 22.4513 64.423 22.697C64.8741 22.9427 65.4824 23.0636 66.2477 23.0636C67.0131 23.0636 67.6173 22.9387 68.149 22.6849C68.6808 22.4311 69.1158 22.125 69.4622 21.7665C69.8046 21.408 70.0624 21.0414 70.2356 20.6628C70.4089 20.2841 70.4935 19.978 70.4935 19.7322V10.4875H71.5488V23.8007H70.5176V21.7423C70.4371 21.9236 70.2759 22.1371 70.0383 22.3908C69.8006 22.6446 69.4985 22.8903 69.1319 23.128C68.7654 23.3657 68.3384 23.5711 67.859 23.7403C67.3756 23.9135 66.856 23.9981 66.3001 23.9981C65.434 23.9981 64.713 23.8813 64.141 23.6436C63.569 23.406 63.1057 23.0837 62.7553 22.6769C62.4048 22.27 62.1551 21.8068 62.006 21.2911C61.861 20.7755 61.7845 20.2317 61.7845 19.6597V10.4916Z"
            fill="#0B282E" />
        <path d="M74.8036 5.23828V23.772H73.7482V5.23828H74.8036Z" fill="#0B282E" />
        <path
            d="M82.3162 23.0718C83.2467 23.0718 84.0725 22.951 84.7935 22.7052C85.5106 22.4595 86.0947 22.1493 86.5337 21.7747L87.0493 22.5602C86.5901 22.9348 85.9577 23.2732 85.148 23.5673C84.3384 23.8613 83.4038 24.0104 82.3404 24.0104C81.4099 24.0104 80.6002 23.8654 79.9114 23.5673C79.2266 23.2732 78.6626 22.8623 78.2195 22.3306C77.7764 21.7989 77.4461 21.1745 77.2246 20.4535C77.003 19.7324 76.8943 18.959 76.8943 18.1252V16.2601C76.8943 15.4102 77.0151 14.6287 77.2608 13.9197C77.5065 13.2108 77.853 12.5945 78.3041 12.0829C78.7553 11.5713 79.3031 11.1725 79.9476 10.8946C80.5921 10.6166 81.3253 10.4797 82.143 10.4797C83.0091 10.4797 83.7664 10.6247 84.4109 10.9228C85.0554 11.2168 85.5952 11.6237 86.0302 12.1473C86.4653 12.671 86.7915 13.3034 87.0131 14.0486C87.2346 14.7939 87.3434 15.6156 87.3434 16.5139V17.4927H77.9295V17.96C77.9295 19.6438 78.3162 20.9167 79.0937 21.7828C79.8711 22.6488 80.9466 23.0839 82.3162 23.0839V23.0718ZM82.143 11.4021C80.8338 11.4021 79.8066 11.8452 79.0534 12.7274C78.3001 13.6096 77.9255 14.8261 77.9255 16.381V16.6267H86.3122C86.3122 14.8946 85.9617 13.5894 85.2568 12.7153C84.5519 11.8412 83.5166 11.4021 82.143 11.4021Z"
            fill="#0B282E" />
        <path
            d="M93.2568 23.0713C93.8771 23.0713 94.429 23.0028 94.9124 22.8618C95.3958 22.7249 95.7986 22.5396 96.1249 22.31C96.4512 22.0804 96.7009 21.8105 96.8741 21.5003C97.0473 21.1901 97.1319 20.8719 97.1319 20.5456V20.2274C97.1319 19.7843 97.0634 19.4218 96.9225 19.1358C96.7815 18.8497 96.5559 18.6081 96.2377 18.4107C95.9194 18.2133 95.4965 18.0441 94.9768 17.8951C94.4532 17.7501 93.8006 17.601 93.0151 17.452C92.3948 17.3392 91.8308 17.1942 91.3233 17.0209C90.8157 16.8477 90.3766 16.6383 89.998 16.3845C89.6234 16.1307 89.3333 15.8205 89.1279 15.454C88.9225 15.0874 88.8217 14.6403 88.8217 14.1166V13.7259C88.8217 13.2828 88.9144 12.8638 89.1037 12.4651C89.293 12.0663 89.5791 11.7158 89.9617 11.4218C90.3444 11.1277 90.8197 10.8941 91.3837 10.7249C91.9476 10.5517 92.6042 10.4671 93.3575 10.4671C94.3887 10.4671 95.2709 10.5879 96.004 10.8336C96.7412 11.0794 97.3132 11.3573 97.72 11.6675L97.2769 12.4288C96.6083 12.022 95.9718 11.748 95.3756 11.607C94.7794 11.4701 94.0705 11.3976 93.2568 11.3976C92.145 11.3976 91.2951 11.6071 90.7069 12.022C90.1188 12.4409 89.8248 13.0169 89.8248 13.7501V14.0683C89.8248 14.459 89.9174 14.7974 90.1067 15.0713C90.2961 15.3492 90.5539 15.5789 90.8802 15.7561C91.2064 15.9374 91.5931 16.0864 92.0443 16.2113C92.4955 16.3321 92.9788 16.4449 93.5025 16.5416C94.3041 16.6866 94.9929 16.8518 95.573 17.033C96.1531 17.2143 96.6284 17.4359 96.995 17.7057C97.3615 17.9756 97.6314 18.3019 97.8046 18.6846C97.9778 19.0673 98.0624 19.5547 98.0624 20.1428V20.5859C98.0624 21.1418 97.9295 21.6332 97.6717 22.0562C97.4099 22.4832 97.0634 22.8377 96.6284 23.1237C96.1934 23.4097 95.6939 23.6272 95.1218 23.7722C94.5498 23.9172 93.9617 23.9938 93.3575 23.9938C92.3424 23.9938 91.4199 23.8487 90.5861 23.5507C89.7523 23.2566 89.0554 22.8981 88.5035 22.4711L89.0191 21.6373C89.6234 22.0642 90.2961 22.4066 91.0413 22.6685C91.7865 22.9303 92.5237 23.0592 93.2608 23.0592L93.2568 23.0713Z"
            fill="#0B282E" />
    </g>
    <defs>
        <clipPath id="clip0_2535_134">
            <rect width="109.825" height="24" fill="white" />
        </clipPath>
    </defs>
</svg>