<svg width="111" height="24" viewBox="0 0 111 24" fill="none" xmlns="http://www.w3.org/2000/svg">
    <g clip-path="url(#clip0_2535_149)">
        <path
            d="M55.1017 5.76331C56.3464 5.76331 57.4461 5.91235 58.4008 6.20641C59.3555 6.50047 60.286 7.00802 61.1843 7.72907L59.4924 10.1339C58.7714 9.52967 58.0624 9.13088 57.3575 8.94156C56.6525 8.75223 55.8993 8.65958 55.1017 8.65958C54.578 8.65958 54.0624 8.73612 53.5549 8.89322C53.0473 9.05032 52.5962 9.33229 52.2054 9.73914C51.8147 10.15 51.4924 10.7059 51.2467 11.4068C51.001 12.1117 50.8801 13.01 50.8801 14.1057V15.9224C50.8801 16.857 50.9929 17.6505 51.2225 18.3031C51.4521 18.9557 51.7583 19.4914 52.141 19.8983C52.5236 20.3091 52.9708 20.6072 53.4783 20.7925C53.9859 20.9818 54.5176 21.0745 55.0735 21.0745C55.8912 21.0745 56.7291 20.9496 57.5911 20.6958C58.4491 20.4421 59.2306 19.9546 59.9355 19.2376L61.6032 21.6425C61.0795 22.1661 60.5277 22.581 59.9476 22.8831C59.3676 23.1853 58.7915 23.4229 58.2195 23.5961C57.6475 23.7694 57.0836 23.8781 56.5277 23.9265C55.9718 23.9748 55.4481 23.999 54.9567 23.999C53.9899 23.999 53.0715 23.858 52.1974 23.58C51.3232 23.3021 50.5539 22.859 49.8892 22.2547C49.2286 21.6505 48.7009 20.8811 48.3061 19.9466C47.9114 19.012 47.718 17.8842 47.718 16.5589V13.3927C47.718 12.0674 47.9114 10.9275 48.294 9.96875C48.6767 9.01003 49.2044 8.21648 49.8771 7.58808C50.5498 6.95968 51.3273 6.49644 52.2215 6.20238C53.1158 5.90832 54.0745 5.75928 55.1057 5.75928L55.1017 5.76331Z"
            fill="white" />
        <path d="M64.2457 5.21484V23.7687H63.1903V5.21484H64.2457Z" fill="white" />
        <path
            d="M70.3323 23.999C69.7281 23.999 69.1641 23.9185 68.6405 23.7533C68.1168 23.5881 67.6656 23.3505 67.291 23.0282C66.9164 22.71 66.6183 22.3152 66.3968 21.852C66.1752 21.3847 66.0665 20.8409 66.0665 20.2206V19.854C66.0665 19.3626 66.1511 18.8993 66.3243 18.4683C66.4975 18.0373 66.7674 17.6586 67.1339 17.3404C67.5005 17.0222 67.9637 16.7684 68.5196 16.5791C69.0755 16.3898 69.7361 16.2971 70.5055 16.2971H74.5055V14.7019C74.5055 13.6224 74.2155 12.8047 73.6354 12.2488C73.0554 11.6929 72.1853 11.4149 71.0211 11.4149C70.3001 11.4149 69.6274 11.5317 68.995 11.7694C68.3666 12.0071 67.7462 12.3293 67.142 12.7402L66.6264 11.9305C67.1984 11.5237 67.863 11.1732 68.6123 10.8872C69.3615 10.6012 70.1913 10.4562 71.0896 10.4562C72.4632 10.4562 73.5508 10.8147 74.3525 11.5358C75.1541 12.2568 75.5529 13.2961 75.5529 14.6536V23.8057H74.4975V21.9648H74.4733C74.3404 22.1944 74.1631 22.4361 73.9335 22.6899C73.7039 22.9436 73.426 23.1612 73.0997 23.3424C72.7412 23.5398 72.3384 23.6969 71.8953 23.8218C71.4522 23.9467 70.9285 24.0071 70.3243 24.0071L70.3323 23.999ZM74.5055 17.1994H70.5297C69.9093 17.1994 69.3817 17.2679 68.9466 17.4089C68.5116 17.5499 68.1652 17.7352 67.9033 17.9728C67.6415 18.2105 67.4522 18.4884 67.3394 18.8067C67.2266 19.1249 67.1662 19.4673 67.1662 19.8258V20.2206C67.1662 20.7604 67.2628 21.2115 67.4602 21.57C67.6576 21.9285 67.9073 22.2186 68.2095 22.4401C68.5116 22.6617 68.854 22.8188 69.2407 22.9195C69.6234 23.0161 70.0141 23.0685 70.4048 23.0685C70.8318 23.0685 71.2387 23.0323 71.6334 22.9597C72.0242 22.8872 72.4109 22.7503 72.7855 22.5529C73.3092 22.2911 73.7241 21.9326 74.0383 21.4733C74.3484 21.0141 74.5055 20.5267 74.5055 19.999V17.1994Z"
            fill="white" />
        <path
            d="M79.1903 6.39498V7.8411H77.9376V6.39498H79.1903ZM79.0936 10.689V23.7686H78.0383V10.689H79.0936Z"
            fill="white" />
        <path
            d="M97.6918 23.7695V15.0807C97.6918 14.5248 97.6395 14.0172 97.5307 13.558C97.426 13.0988 97.2487 12.708 97.003 12.3818C96.7573 12.0555 96.431 11.8057 96.0201 11.6325C95.6093 11.4593 95.0977 11.3747 94.4733 11.3747C93.8207 11.3747 93.2568 11.4956 92.7935 11.7413C92.3263 11.987 91.9436 12.2851 91.6415 12.6355C91.3394 12.986 91.1178 13.3606 90.9809 13.7513C90.8399 14.1461 90.7714 14.4885 90.7714 14.7826V23.7654H89.716V15.0766C89.716 14.5207 89.6636 14.0132 89.5549 13.554C89.4501 13.0948 89.2729 12.704 89.0272 12.3777C88.7815 12.0514 88.4511 11.8017 88.0322 11.6285C87.6133 11.4553 87.0936 11.3707 86.4733 11.3707C85.8207 11.3707 85.2568 11.4956 84.7935 11.7493C84.3263 12.0031 83.9476 12.3133 83.6536 12.6839C83.3595 13.0504 83.142 13.4371 83.005 13.8359C82.864 14.2388 82.7956 14.5852 82.7956 14.8792V23.7614H81.7402V10.6899H82.7714V12.704C82.8842 12.4744 83.0453 12.2287 83.2507 11.9669C83.4562 11.705 83.714 11.4593 84.0242 11.2297C84.3343 11.0001 84.709 10.8067 85.14 10.6537C85.575 10.5006 86.0745 10.42 86.6505 10.42C87.7462 10.42 88.6002 10.6617 89.2165 11.1451C89.8288 11.6285 90.2518 12.2287 90.4814 12.9497C90.8076 12.2609 91.3232 11.6688 92.0282 11.1693C92.7331 10.6698 93.6072 10.42 94.6546 10.42C95.424 10.42 96.0685 10.5409 96.5921 10.7866C97.1158 11.0323 97.5388 11.3546 97.857 11.7574C98.1752 12.1602 98.4048 12.6194 98.5458 13.1431C98.6828 13.6668 98.7553 14.2065 98.7553 14.7624V23.7695H97.6918Z"
            fill="white" />
        <path d="M0.668671 6.09286H3.80664V23.7686H0.668671V6.09286Z" fill="white" />
        <path
            d="M13.0916 9.96371C13.6959 9.96371 14.2799 10.0523 14.8439 10.2336C15.4078 10.4149 15.9114 10.7049 16.3504 11.1037C16.7935 11.5065 17.144 12.0221 17.4058 12.6626C17.6677 13.2991 17.7966 14.0684 17.7966 14.9667V23.7683H14.7069V15.6274C14.7069 13.6495 13.8489 12.6626 12.1329 12.6626C11.8872 12.6626 11.5972 12.6989 11.2628 12.7714C10.9285 12.8439 10.6103 12.9929 10.3081 13.2145C10.006 13.436 9.74822 13.7502 9.53473 14.1571C9.32123 14.5639 9.2165 15.1037 9.2165 15.7764V23.7683H6.12687V10.2578H9.04329V11.8006H9.09163C9.56695 11.1158 10.151 10.6364 10.8439 10.3665C11.5367 10.0966 12.286 9.96371 13.0876 9.96371H13.0916Z"
            fill="white" />
        <path
            d="M27.0816 9.96371C27.6858 9.96371 28.2699 10.0523 28.8338 10.2336C29.3978 10.4149 29.9013 10.7049 30.3404 11.1037C30.7835 11.5065 31.1339 12.0221 31.3958 12.6626C31.6576 13.2991 31.7865 14.0684 31.7865 14.9667V23.7683H28.6969V15.6274C28.6969 13.6495 27.8389 12.6626 26.1228 12.6626C25.8771 12.6626 25.5871 12.6989 25.2528 12.7714C24.9184 12.8439 24.6002 12.9929 24.2981 13.2145C23.996 13.436 23.7382 13.7502 23.5247 14.1571C23.3112 14.5639 23.2064 15.1037 23.2064 15.7764V23.7683H20.1168V10.2578H23.0332V11.8006H23.0816C23.5569 11.1158 24.141 10.6364 24.8338 10.3665C25.5267 10.0966 26.2759 9.96371 27.0775 9.96371H27.0816Z"
            fill="white" />
        <path
            d="M39.7502 23.9979C38.7835 23.9979 37.9134 23.8569 37.14 23.583C36.3625 23.305 35.7019 22.9062 35.1541 22.3826C34.6062 21.8589 34.1833 21.2104 33.8812 20.4329C33.579 19.6555 33.426 18.7773 33.426 17.7985V16.2033C33.426 15.2084 33.575 14.3222 33.8812 13.5568C34.1833 12.7874 34.6062 12.1429 35.1541 11.6192C35.7019 11.0956 36.3625 10.6968 37.14 10.4188C37.9174 10.1409 38.7875 9.9999 39.7502 9.9999C40.713 9.9999 41.5629 10.1409 42.3484 10.4188C43.1339 10.6968 43.7986 11.0956 44.3464 11.6192C44.8943 12.1429 45.3172 12.7874 45.6193 13.5568C45.9214 14.3262 46.0745 15.2084 46.0745 16.2033V17.7985C46.0745 18.7814 45.9214 19.6595 45.6193 20.4329C45.3172 21.2104 44.8902 21.8589 44.3464 22.3826C43.7986 22.9062 43.1339 23.305 42.3484 23.583C41.5629 23.8609 40.6969 23.9979 39.7502 23.9979ZM39.7502 21.303C40.2054 21.303 40.6324 21.2386 41.0232 21.1056C41.4139 20.9767 41.7523 20.7713 42.0423 20.4934C42.3283 20.2154 42.5539 19.8488 42.715 19.3896C42.8802 18.9344 42.9607 18.3866 42.9607 17.7461V16.2517C42.9607 14.9626 42.6707 14.0442 42.0906 13.5044C41.5106 12.9647 40.7291 12.6948 39.7502 12.6948C38.7714 12.6948 37.9899 12.9647 37.4099 13.5044C36.8298 14.0442 36.5398 14.9586 36.5398 16.2517V17.7461C36.5398 18.3826 36.6203 18.9304 36.7855 19.3896C36.9466 19.8488 37.1722 20.2154 37.4582 20.4934C37.7442 20.7713 38.0826 20.9767 38.4773 21.1056C38.8681 21.2345 39.2951 21.303 39.7543 21.303H39.7502Z"
            fill="white" />
        <path d="M110.51 0L105.869 8.04431H101.031L105.676 0H110.51Z" fill="#FF0000" />
    </g>
    <defs>
        <clipPath id="clip0_2535_149">
            <rect width="109.841" height="24" fill="white" transform="translate(0.668671)" />
        </clipPath>
    </defs>
</svg>