<svg width="156" height="28" fill="none" xmlns="http://www.w3.org/2000/svg"><g clip-path="url(#a)"><path d="m155.996 0-5.364 9.297h-5.591L150.409 0h5.587Z" fill="red"/><path d="M54.503 6.886h7.714c1.07-.023 2.138.127 3.161.442a5.884 5.884 0 0 1 2.17 1.22c.564.51.999 1.15 1.266 1.862a6.55 6.55 0 0 1 .41 2.328v.596a6.703 6.703 0 0 1-.424 2.37 5.223 5.223 0 0 1-1.308 1.955 6.432 6.432 0 0 1-2.183 1.336c-.992.35-2.04.517-3.092.493h-4.083v7.86h-3.631V6.885Zm3.631 3.035v6.495h3.604a5.009 5.009 0 0 0 2.793-.68c.68-.453 1.02-1.276 1.02-2.467v-.512a3.227 3.227 0 0 0-.256-1.397 2.15 2.15 0 0 0-.722-.866 2.937 2.937 0 0 0-1.122-.466 7.481 7.481 0 0 0-1.397-.125l-3.92.018ZM78.578 13.38a4.156 4.156 0 0 0-.806-.21 6.447 6.447 0 0 0-1.01-.074 3.971 3.971 0 0 0-1.9.466 3.845 3.845 0 0 0-1.359 1.206 5.449 5.449 0 0 0-.81 1.815 9.01 9.01 0 0 0-.27 2.267v8.51h-1.22V12.22h1.173v2.92c.142-.416.338-.812.582-1.178.258-.389.571-.737.931-1.034a4.592 4.592 0 0 1 1.29-.735 4.536 4.536 0 0 1 1.648-.284c.383-.004.767.024 1.145.084.318.054.63.14.931.256l-.325 1.131ZM85.556 11.676c1.965 0 3.492.596 4.581 1.788 1.09 1.192 1.633 2.874 1.63 5.047v2.01c0 2.174-.543 3.856-1.63 5.048-1.086 1.191-2.613 1.787-4.581 1.787-1.97 0-3.498-.596-4.581-1.787-1.083-1.192-1.622-2.874-1.616-5.047v-1.988c0-2.173.545-3.855 1.635-5.047 1.089-1.191 2.61-1.795 4.562-1.81Zm0 14.605a4.79 4.79 0 0 0 3.645-1.397c.894-.93 1.343-2.387 1.346-4.367V18.53c0-1.964-.449-3.42-1.346-4.367a5.391 5.391 0 0 0-7.29 0c-.897.931-1.347 2.387-1.35 4.367v1.993c0 1.965.45 3.42 1.35 4.367a4.792 4.792 0 0 0 3.645 1.397v-.005ZM104.337 24.558a4.84 4.84 0 0 1-1.862 1.97 5.69 5.69 0 0 1-3.064.81c-1.834 0-3.257-.548-4.269-1.644C94.13 24.6 93.624 23 93.624 20.9v-2.793a8.034 8.034 0 0 1 .438-2.766 5.62 5.62 0 0 1 1.248-2.03 5.195 5.195 0 0 1 1.904-1.233 7.034 7.034 0 0 1 5.121.144 4.283 4.283 0 0 1 2.002 1.602V5.666h1.22V27.11h-1.192l-.028-2.552Zm0-8.114a3.085 3.085 0 0 0-.34-1.397 3.471 3.471 0 0 0-.978-1.164 5.262 5.262 0 0 0-1.517-.796 6.058 6.058 0 0 0-1.932-.298 4.45 4.45 0 0 0-3.432 1.397c-.87.93-1.303 2.328-1.303 4.083v2.44c0 1.796.388 3.163 1.164 4.1.776.938 1.957 1.404 3.543 1.397a4.822 4.822 0 0 0 1.676-.311 4.9 4.9 0 0 0 1.545-.931c.47-.407.855-.902 1.132-1.458a4.3 4.3 0 0 0 .442-1.974v-5.088ZM107.759 11.723h1.22v10.242c.003.468.045.935.125 1.397.08.496.259.971.526 1.396.292.453.699.82 1.178 1.067a4.414 4.414 0 0 0 2.109.423 4.959 4.959 0 0 0 3.725-1.504c.367-.37.668-.802.889-1.275.173-.334.275-.7.298-1.076v-10.67h1.22v15.363h-1.188v-2.374a3.082 3.082 0 0 1-.554.754 5.472 5.472 0 0 1-1.052.852c-.463.29-.956.526-1.471.708a5.302 5.302 0 0 1-1.802.298 6.626 6.626 0 0 1-2.495-.41 4.095 4.095 0 0 1-2.472-2.724 6.935 6.935 0 0 1-.252-1.862l-.004-10.605ZM127.079 11.676a9.895 9.895 0 0 1 2.598.34c.805.21 1.561.576 2.226 1.076l-.541.93a6.722 6.722 0 0 0-2.099-.982 8.844 8.844 0 0 0-2.184-.27c-1.607 0-2.812.517-3.612 1.55a6.312 6.312 0 0 0-1.206 4.014v2.188c-.01.786.09 1.57.298 2.328.182.662.499 1.28.931 1.816.41.514.941.919 1.546 1.177a5.371 5.371 0 0 0 2.183.41 7.872 7.872 0 0 0 2.751-.424 6.31 6.31 0 0 0 1.9-1.08l.596.931a7.644 7.644 0 0 1-2.114 1.164 8.771 8.771 0 0 1-3.161.512 7.051 7.051 0 0 1-2.514-.428 5.123 5.123 0 0 1-1.927-1.276 5.738 5.738 0 0 1-1.248-2.141 9.352 9.352 0 0 1-.438-3.017V18.45a8.849 8.849 0 0 1 .41-2.793 6.074 6.074 0 0 1 1.178-2.128 5.257 5.257 0 0 1 1.862-1.364 6.43 6.43 0 0 1 2.565-.489ZM136.4 13.129h-2.64v-1.024h2.64V8.189h1.219v3.916h4.283v1.024h-4.283v9.777c-.05.874.1 1.748.438 2.556.293.563.931.847 1.89.847.393.003.785-.025 1.173-.084.359-.057.715-.133 1.066-.228l.196.996a7.436 7.436 0 0 1-1.117.252 7.298 7.298 0 0 1-1.206.116 6.25 6.25 0 0 1-1.462-.158 2.62 2.62 0 0 1-1.164-.596 2.789 2.789 0 0 1-.763-1.248 6.832 6.832 0 0 1-.27-2.141V13.129ZM0 6.909h3.627v20.429H0V6.908ZM14.358 11.383c.687 0 1.37.105 2.025.312.646.206 1.24.549 1.741 1.005a4.874 4.874 0 0 1 1.22 1.802c.327.85.485 1.754.466 2.663v10.173h-3.571v-9.41c0-2.284-.992-3.426-2.975-3.426a4.838 4.838 0 0 0-1.006.126 2.9 2.9 0 0 0-1.103.512 3.069 3.069 0 0 0-.894 1.09 4.041 4.041 0 0 0-.368 1.862v9.236h-3.57V11.723h3.37v1.787h.06a4.326 4.326 0 0 1 2.026-1.657 7.092 7.092 0 0 1 2.579-.47ZM30.527 11.383c.687 0 1.37.105 2.025.312.646.206 1.24.549 1.741 1.005a4.874 4.874 0 0 1 1.22 1.802c.327.85.485 1.754.465 2.663v10.173h-3.566v-9.41c0-2.284-.991-3.426-2.975-3.426-.34.007-.678.05-1.01.126-.4.09-.776.265-1.103.512a3.068 3.068 0 0 0-.894 1.09 4.1 4.1 0 0 0-.368 1.862v9.236h-3.57V11.723h3.374v1.787h.056a4.325 4.325 0 0 1 2.026-1.657 7.091 7.091 0 0 1 2.579-.47ZM45.17 27.338a8.895 8.895 0 0 1-3.018-.466 6.373 6.373 0 0 1-2.295-1.397 6.146 6.146 0 0 1-1.476-2.253 8.333 8.333 0 0 1-.521-3.045v-1.862a8.324 8.324 0 0 1 .521-3.059 6.163 6.163 0 0 1 1.476-2.239 6.373 6.373 0 0 1 2.295-1.397 9.595 9.595 0 0 1 6.02 0 6.354 6.354 0 0 1 2.328 1.397 6.162 6.162 0 0 1 1.476 2.24c.364.977.54 2.015.521 3.058v1.862a8.333 8.333 0 0 1-.521 3.045 6.146 6.146 0 0 1-1.476 2.253 6.354 6.354 0 0 1-2.328 1.397 8.946 8.946 0 0 1-3.003.466Zm0-3.12c.5.005.998-.07 1.475-.223.44-.145.84-.387 1.173-.708.355-.36.62-.796.778-1.275a5.63 5.63 0 0 0 .284-1.9v-1.727c0-1.493-.336-2.551-1.006-3.175a4.377 4.377 0 0 0-5.41 0c-.67.62-1.005 1.679-1.005 3.175v1.727a5.63 5.63 0 0 0 .284 1.9c.157.48.423.916.777 1.275.334.322.737.564 1.178.708.475.153.972.228 1.471.223Z" fill="#0B282E"/></g><defs><clipPath id="a"><path fill="#fff" d="M0 0h156v27.338H0z"/></clipPath></defs></svg>